<?xml version="1.0" encoding="UTF-8"?><svg id="Layer_1" xmlns="http://www.w3.org/2000/svg" viewBox="0 0 1168.06 420.21"><defs><style>.cls-1{fill:#fff;}</style></defs><g><path class="cls-1" d="m660.89,378.1c0,1.91.09,3.4.29,4.47.19,1.07.58,1.92,1.18,2.54.6.62,1.47,1.1,2.61,1.43,1.14.33,2.69.69,4.65,1.07v.86c-2.05-.1-4.08-.17-6.08-.21-2-.05-4.03-.07-6.08-.07-1.77,0-3.52.02-5.26.07-1.74.05-3.49.12-5.26.21v-.86c1.72-.14,3.06-.4,4.04-.79.98-.38,1.73-.98,2.25-1.79.52-.81.86-1.87,1-3.18.14-1.31.21-2.97.21-4.97v-23.9c0-2-.07-3.66-.21-4.97-.14-1.31-.48-2.37-1-3.18-.52-.81-1.28-1.41-2.25-1.79-.98-.38-2.32-.64-4.04-.79v-.86c.67.05,1.55.1,2.65.14,1.1.05,2.23.08,3.4.11,1.17.02,2.29.04,3.36.04h18.14c2.43,0,4.58-.04,6.44-.11,1.86-.07,3.81-.13,5.87-.18-.1,1-.17,1.99-.21,2.97-.05.98-.07,1.94-.07,2.9,0,1.24.02,2.47.07,3.68.05,1.22.12,2.44.21,3.68h-1.14c-.76-2.72-1.75-4.83-2.97-6.33-1.22-1.5-2.65-2.6-4.29-3.29-1.64-.69-3.52-1.11-5.62-1.25-2.1-.14-4.39-.21-6.87-.21-.81,0-1.62.02-2.43.07-.81.05-1.67.07-2.58.07v17.74h5.72c2.86,0,5.08-.6,6.65-1.79,1.57-1.19,2.84-3.15,3.79-5.87h.86c-.14,3.24-.21,6.49-.21,9.73,0,1.72.01,3.3.03,4.76.02,1.45.08,3.02.18,4.69h-.86c-.48-1.76-.98-3.23-1.5-4.4s-1.16-2.11-1.9-2.83c-.74-.71-1.63-1.24-2.68-1.57-1.05-.33-2.34-.57-3.86-.71-.43-.05-.88-.08-1.36-.11-.48-.02-.98-.03-1.5-.03h-3.36v14.81Z"/><path class="cls-1" d="m717.76,387.61c1.72-.14,3.05-.4,4.01-.79.95-.38,1.68-.98,2.18-1.79.5-.81.81-1.87.93-3.18.12-1.31.18-2.97.18-4.97v-23.9c0-2-.06-3.66-.18-4.97-.12-1.31-.43-2.37-.93-3.18-.5-.81-1.25-1.41-2.25-1.79-1-.38-2.36-.64-4.08-.79v-.86c2,.1,3.95.17,5.83.21,1.88.05,3.83.07,5.83.07,1.57,0,3.15-.02,4.72-.07,1.57-.05,3.12-.12,4.65-.21v.86c-1.67.14-2.98.41-3.93.79-.95.38-1.67.98-2.15,1.79-.48.81-.78,1.87-.89,3.18-.12,1.31-.18,2.97-.18,4.97v23.9c0,2,.06,3.66.18,4.97.12,1.31.43,2.37.93,3.18.5.81,1.25,1.41,2.25,1.79,1,.38,2.38.64,4.15.79v.86c-1.81-.1-3.63-.17-5.44-.21-1.81-.05-3.63-.07-5.44-.07s-3.51.02-5.22.07c-1.72.05-3.43.12-5.15.21v-.86Z"/><path class="cls-1" d="m768.41,341.39c1.67.1,3.25.17,4.76.21,1.5.05,3.26.07,5.26.07,1.05,0,2.07-.02,3.08-.07,1-.05,2.03-.12,3.08-.21.62.86,1.64,2.16,3.08,3.9,1.43,1.74,3.06,3.73,4.9,5.97,1.83,2.24,3.8,4.63,5.9,7.15,2.1,2.53,4.12,5,6.08,7.41,1.95,2.41,3.76,4.65,5.4,6.73,1.64,2.07,2.94,3.78,3.9,5.12h.14c0-1.43.01-2.85.04-4.26.02-1.41.04-2.83.04-4.26v-8.3c0-3.05-.11-5.71-.32-7.98-.21-2.26-.64-4.16-1.29-5.69-.64-1.53-1.55-2.69-2.72-3.51-1.17-.81-2.71-1.29-4.61-1.43v-.86c1.67.1,3.35.17,5.04.21,1.69.05,3.37.07,5.04.07,1.53,0,3.08-.02,4.65-.07,1.57-.05,3.12-.12,4.65-.21v.86c-3,.38-5.07,1.25-6.19,2.61-1.12,1.36-1.68,3.45-1.68,6.26v37.92h-2.65c-2.62-4.1-5.4-8.08-8.33-11.95-2.93-3.86-5.84-7.54-8.73-11.02-2.89-3.48-5.68-6.71-8.37-9.69-2.7-2.98-5.12-5.64-7.26-7.98-.05,1.24-.08,2.46-.11,3.65-.02,1.19-.04,2.41-.04,3.65v12.52c0,4.25.08,7.6.25,10.05.17,2.46.57,4.34,1.22,5.65.64,1.31,1.6,2.19,2.86,2.65,1.26.45,3.02.8,5.26,1.04v.86c-2.43-.1-4.79-.17-7.08-.21-2.29-.05-4.65-.07-7.08-.07-1.38,0-2.74.02-4.08.07-1.34.05-2.69.12-4.08.21v-.86c1.62-.24,3.04-.46,4.26-.68,1.22-.21,2.22-.57,3-1.07.79-.5,1.38-1.22,1.79-2.15.4-.93.63-2.23.68-3.9l.86-32.84c-1.53-1.24-3.2-2.22-5.01-2.93-1.81-.71-3.67-1.31-5.58-1.79v-.86Z"/><path class="cls-1" d="m853.98,387.61c1.72-.14,3.05-.4,4.01-.79.95-.38,1.68-.98,2.18-1.79.5-.81.81-1.87.93-3.18.12-1.31.18-2.97.18-4.97v-23.9c0-2-.06-3.66-.18-4.97-.12-1.31-.43-2.37-.93-3.18-.5-.81-1.25-1.41-2.25-1.79-1-.38-2.36-.64-4.08-.79v-.86c2,.1,3.95.17,5.83.21,1.88.05,3.83.07,5.83.07,1.57,0,3.15-.02,4.72-.07,1.57-.05,3.12-.12,4.65-.21v.86c-1.67.14-2.98.41-3.93.79-.95.38-1.67.98-2.15,1.79-.48.81-.78,1.87-.89,3.18-.12,1.31-.18,2.97-.18,4.97v23.9c0,2,.06,3.66.18,4.97.12,1.31.43,2.37.93,3.18.5.81,1.25,1.41,2.25,1.79,1,.38,2.38.64,4.15.79v.86c-1.81-.1-3.63-.17-5.44-.21-1.81-.05-3.63-.07-5.44-.07s-3.51.02-5.22.07c-1.72.05-3.43.12-5.15.21v-.86Z"/><path class="cls-1" d="m938.62,354.99c-.62-1.53-1.42-3.04-2.4-4.54-.98-1.5-2.11-2.84-3.4-4.01-1.29-1.17-2.72-2.11-4.29-2.83-1.57-.72-3.29-1.07-5.15-1.07-2.72,0-4.95.5-6.69,1.5-1.74,1-2.61,2.79-2.61,5.37,0,1.53.39,2.85,1.18,3.97.79,1.12,1.84,2.11,3.15,2.97,1.31.86,2.8,1.65,4.47,2.36,1.67.72,3.37,1.44,5.12,2.18,1.74.74,3.44,1.54,5.11,2.4,1.67.86,3.16,1.88,4.47,3.08,1.31,1.19,2.36,2.58,3.15,4.15.79,1.57,1.18,3.46,1.18,5.65,0,2.34-.43,4.35-1.29,6.05-.86,1.69-2.01,3.09-3.47,4.19-1.45,1.1-3.15,1.91-5.08,2.43-1.93.52-4,.79-6.19.79-1.19,0-2.43-.11-3.72-.33-1.29-.22-2.53-.47-3.72-.74-1.19-.27-2.28-.52-3.25-.74-.98-.22-1.75-.33-2.33-.33-.52,0-1.03.08-1.5.25-.48.17-.98.35-1.5.54-.43-2.71-.93-5.36-1.5-7.94-.57-2.59-1.17-5.23-1.79-7.94l.93-.5c.86,1.66,1.9,3.39,3.11,5.2,1.22,1.8,2.59,3.45,4.11,4.95,1.53,1.5,3.21,2.74,5.04,3.74,1.84,1,3.83,1.5,5.97,1.5,1.38,0,2.72-.15,4.01-.46,1.29-.31,2.42-.8,3.4-1.46.98-.67,1.75-1.54,2.33-2.61.57-1.07.86-2.39.86-3.96,0-2.24-.69-4.11-2.07-5.61-1.38-1.5-3.1-2.81-5.15-3.93-2.05-1.12-4.28-2.16-6.69-3.11-2.41-.95-4.64-2.02-6.69-3.21-2.05-1.19-3.77-2.6-5.15-4.22-1.38-1.62-2.07-3.67-2.07-6.14,0-1.86.36-3.55,1.07-5.07.71-1.52,1.68-2.82,2.9-3.89,1.22-1.07,2.62-1.89,4.22-2.46,1.6-.57,3.3-.86,5.12-.86s3.35.12,4.76.36c1.41.24,2.78.5,4.11.79,1.38.29,2.74.56,4.08.82,1.33.26,2.77.39,4.29.39,0,2.15.04,4.23.11,6.26.07,2.03.22,4.07.46,6.12h-1Z"/><path class="cls-1" d="m1014.02,352.98c0-2-.06-3.66-.18-4.97-.12-1.31-.43-2.37-.93-3.18-.5-.81-1.25-1.41-2.25-1.79-1-.38-2.36-.64-4.08-.79v-.86c2,.1,3.95.17,5.83.21,1.88.05,3.83.07,5.83.07,1.57,0,3.15-.02,4.72-.07,1.57-.05,3.12-.12,4.65-.21v.86c-1.67.14-2.98.41-3.93.79-.95.38-1.67.98-2.15,1.79-.48.81-.78,1.87-.89,3.18-.12,1.31-.18,2.97-.18,4.97v23.9c0,2,.06,3.66.18,4.97.12,1.31.43,2.37.93,3.18.5.81,1.25,1.41,2.25,1.79,1,.38,2.38.64,4.15.79v.86c-1.81-.1-3.63-.17-5.44-.21-1.81-.05-3.63-.07-5.44-.07s-3.51.02-5.22.07c-1.72.05-3.43.12-5.15.21v-.86c1.72-.14,3.05-.4,4.01-.79.95-.38,1.68-.98,2.18-1.79.5-.81.81-1.87.93-3.18.12-1.31.18-2.97.18-4.97v-12.88h-26.54v12.88c0,2,.06,3.66.18,4.97.12,1.31.43,2.37.93,3.18.5.81,1.25,1.41,2.25,1.79,1,.38,2.38.64,4.15.79v.86c-1.81-.1-3.62-.17-5.44-.21-1.81-.05-3.62-.07-5.44-.07s-3.51.02-5.22.07c-1.72.05-3.43.12-5.15.21v-.86c1.72-.14,3.05-.4,4.01-.79.95-.38,1.68-.98,2.18-1.79.5-.81.81-1.87.93-3.18.12-1.31.18-2.97.18-4.97v-23.9c0-2-.06-3.66-.18-4.97-.12-1.31-.43-2.37-.93-3.18-.5-.81-1.25-1.41-2.25-1.79-1-.38-2.36-.64-4.08-.79v-.86c2,.1,3.95.17,5.83.21,1.88.05,3.83.07,5.83.07,1.57,0,3.15-.02,4.72-.07,1.57-.05,3.12-.12,4.65-.21v.86c-1.67.14-2.98.41-3.94.79-.95.38-1.67.98-2.15,1.79-.48.81-.78,1.87-.89,3.18-.12,1.31-.18,2.97-.18,4.97v8.73h26.54v-8.73Z"/><path class="cls-1" d="m1072.04,385.39c.43.1.95.19,1.57.29.62.1,1.29.19,2,.29.71.1,1.45.18,2.22.25.76.07,1.48.11,2.15.11,2.86,0,5.43-.24,7.69-.71,2.26-.48,4.34-1.24,6.22-2.29,1.88-1.05,3.66-2.38,5.33-4.01,1.67-1.62,3.36-3.58,5.08-5.87l.79.64-6.51,14.38c-.81-.1-1.65-.17-2.5-.21-.86-.05-1.69-.07-2.5-.07h-26.9c-1.38,0-2.77.02-4.15.07-1.38.05-2.77.12-4.15.21v-.86c1.72-.14,3.05-.4,4.01-.79.95-.38,1.67-.98,2.15-1.79.48-.81.77-1.87.89-3.18.12-1.31.18-2.97.18-4.97v-23.9c0-2-.06-3.66-.18-4.97-.12-1.31-.42-2.37-.89-3.18-.48-.81-1.22-1.41-2.22-1.79-1-.38-2.36-.64-4.08-.79v-.86c1.62.05,3.16.1,4.62.14,1.45.05,2.96.08,4.51.11,1.55.02,3.2.04,4.94.04h5.9c3.34,0,6.68-.02,10.02-.07,3.34-.05,6.73-.12,10.16-.21-.05.52-.08,1.05-.11,1.57-.02.52-.04,1.03-.04,1.5v2.86c0,1.05.05,2.11.14,3.18.09,1.07.19,2.25.29,3.54l-.93.29c-.62-2.29-1.44-4.16-2.47-5.62-1.03-1.45-2.22-2.59-3.58-3.4-1.36-.81-2.85-1.36-4.47-1.65-1.62-.29-3.34-.43-5.15-.43-3.34,0-6.68.14-10.02.43v17.89c.95,0,1.87-.02,2.75-.07.88-.05,1.8-.07,2.75-.07,3.29,0,5.9-.65,7.83-1.97s3.11-3.71,3.54-7.19h.86c0,1.72-.02,3.43-.07,5.15-.05,1.72-.07,3.41-.07,5.08s.02,3.43.07,5.15c.05,1.72.07,3.43.07,5.15h-.86c-.43-2-.95-3.64-1.57-4.9-.62-1.26-1.39-2.23-2.32-2.9-.93-.67-2.09-1.12-3.47-1.36-1.38-.24-3.03-.36-4.94-.36h-4.58v22.11Z"/><path class="cls-1" d="m1164.76,354.99c-.62-1.53-1.42-3.04-2.4-4.54-.98-1.5-2.11-2.84-3.4-4.01-1.29-1.17-2.72-2.11-4.29-2.83-1.57-.72-3.29-1.07-5.15-1.07-2.72,0-4.95.5-6.69,1.5-1.74,1-2.61,2.79-2.61,5.37,0,1.53.39,2.85,1.18,3.97.79,1.12,1.84,2.11,3.15,2.97,1.31.86,2.8,1.65,4.47,2.36,1.67.72,3.37,1.44,5.12,2.18,1.74.74,3.44,1.54,5.11,2.4,1.67.86,3.16,1.88,4.47,3.08,1.31,1.19,2.36,2.58,3.15,4.15.79,1.57,1.18,3.46,1.18,5.65,0,2.34-.43,4.35-1.29,6.05-.86,1.69-2.01,3.09-3.47,4.19-1.45,1.1-3.15,1.91-5.08,2.43-1.93.52-4,.79-6.19.79-1.19,0-2.43-.11-3.72-.33-1.29-.22-2.53-.47-3.72-.74-1.19-.27-2.28-.52-3.25-.74-.98-.22-1.75-.33-2.33-.33-.52,0-1.03.08-1.5.25-.48.17-.98.35-1.5.54-.43-2.71-.93-5.36-1.5-7.94-.57-2.59-1.17-5.23-1.79-7.94l.93-.5c.86,1.66,1.9,3.39,3.11,5.2,1.22,1.8,2.59,3.45,4.11,4.95,1.53,1.5,3.21,2.74,5.04,3.74,1.84,1,3.83,1.5,5.97,1.5,1.38,0,2.72-.15,4.01-.46,1.29-.31,2.42-.8,3.4-1.46.98-.67,1.75-1.54,2.33-2.61.57-1.07.86-2.39.86-3.96,0-2.24-.69-4.11-2.07-5.61-1.38-1.5-3.1-2.81-5.15-3.93-2.05-1.12-4.28-2.16-6.69-3.11-2.41-.95-4.64-2.02-6.69-3.21-2.05-1.19-3.77-2.6-5.15-4.22-1.38-1.62-2.07-3.67-2.07-6.14,0-1.86.36-3.55,1.07-5.07.71-1.52,1.68-2.82,2.9-3.89,1.22-1.07,2.62-1.89,4.22-2.46,1.6-.57,3.3-.86,5.12-.86s3.35.12,4.76.36c1.41.24,2.78.5,4.11.79,1.38.29,2.74.56,4.08.82,1.33.26,2.77.39,4.29.39,0,2.15.04,4.23.11,6.26.07,2.03.22,4.07.46,6.12h-1Z"/></g><path class="cls-1" d="m1162.3,186.28c-1.19-.65-2.54-.98-4.05-.98-1.3,0-2.6.44-3.89,1.3-5.19,4.33-11.47,9.63-18.82,15.9-13.84,11.46-22.39,18.38-25.63,20.76-14.5,11.47-27.04,20.28-37.64,26.44-10.6,6.17-21.74,9.25-33.42,9.25-8.23,0-13.3-2.81-15.25-8.44-.43-1.3-.86-3.46-1.3-6.49,0-4.76.65-9.41,1.95-13.95,2.59-9.94,7.57-19.79,14.92-29.52,1.08-1.3,1.84-1.95,2.27-1.95s1.3.32,2.59.98c2.38,1.51,5.08,2.59,8.11,3.24,1.3.22,3.25.33,5.84.33,4.11,0,7.79-.43,11.03-1.3,7.35-1.94,13.74-5.35,19.14-10.22,5.4-4.87,9.08-10.87,11.03-18.01.65-2.38.97-4.75.97-7.14,0-2.81-.44-5.19-1.3-7.14-1.3-3.24-3.52-5.68-6.65-7.3-3.14-1.62-6.65-2.43-10.54-2.43-1.52,0-3.36.22-5.52.65-4.33.65-8.76,1.84-13.3,3.57-18.82,8.43-33.53,20.33-44.12,35.69-.63.86-1.18,1.71-1.77,2.57l-54.04,49.99c-12.98,11.68-23.03,20.11-30.17,25.31l-8.43,5.51c-1.08.65-1.84.81-2.27.49-.43-.33-.65-1.02-.65-2.11,0-3.03.11-5.3.32-6.82,1.09-8.43,4.01-20.65,8.76-36.66,7.35-23.36,17.85-49.64,31.47-78.84.86-1.94,1.56-3.46,2.11-4.54.54-1.08,1.73-1.73,3.57-1.95,1.84-.21,3.19-.43,4.05-.65,17.73-2.81,29.85-5.08,36.34-6.81,1.73-.43,2.6-1.19,2.6-2.27,0-.86-.44-1.62-1.3-2.27-2.38-2.81-5.19-4.22-8.43-4.22-1.3,0-2.27.11-2.92.32l-25.63,4.22c-.44,0-.76-.16-.98-.49-.22-.32-.22-.59,0-.81.21-.86.75-2.16,1.62-3.89,1.08-2.38,2.32-5.03,3.73-7.95,1.41-2.92,2.97-6,4.71-9.25l6.49-12.98c5.19-10.81,8.54-18.17,10.06-22.06,1.51-3.68,2.81-7.79,3.9-12.33.65-2.81-.11-5.41-2.27-7.79-1.73-1.95-3.9-3.46-6.49-4.54l-2.6-.65c-1.73,0-3.03,1.08-3.89,3.24l-10.38,20.44c-12.12,22.71-21.53,41.2-28.23,55.48l-2.92,5.84c-.65,1.3-1.84,2.17-3.57,2.6-10.17,1.08-16.55,1.62-19.14,1.62-2.81,0-9.09-.54-18.82-1.62-1.51-.43-3.13-.43-4.87,0-.65,0-1.13.27-1.46.81-.32.54-.37,1.13-.16,1.78.65,1.08,1.62,1.95,2.92,2.6,2.6,1.51,5.52,2.49,8.76,2.92,3.03.44,5.9.76,8.6.97,2.71.22,5.35.44,7.95.65,3.03,0,5.4.11,7.14.33,1.73-.21,3.19-.27,4.38-.16,1.18.11,1.78.49,1.78,1.14,0,.87-.65,2.59-1.94,5.19-6.2,14.46-11.68,28.49-16.51,42.12-1.07.89-2.15,1.85-3.28,2.97-4.11,3.68-13.19,12.55-27.25,26.6l-6.49,6.49c-9.52,9.52-16.87,16.44-22.06,20.77l-8.11,5.84c-1.08.65-1.84.87-2.27.65-.22-.21-.32-.59-.32-1.14v-1.13c0-2.81.54-5.84,1.62-9.09.86-3.02,1.62-5.19,2.27-6.49,1.95-6.49,4.22-13.08,6.81-19.79,5.19-14.28,8.97-25.09,11.35-32.44,1.73-5.62,2.92-9.95,3.57-12.98.65-3.02.86-6.05.65-9.08.43-3.46.65-5.51.65-6.16.43-4.11-.11-7.41-1.62-9.9-1.51-2.48-4.11-4.48-7.79-6-2.17-1.08-4.22-1.62-6.17-1.62-1.3,0-3.03.44-5.19,1.3-2.59,1.3-5.41,2.81-8.43,4.54-6.49,4.76-11.25,8.55-14.27,11.35-7.36,6.71-14.82,14.39-22.39,23.03l-3.25,2.92c-.22.44-.49.54-.81.33-.32-.21-.49-.54-.49-.97v-3.9c0-1.73-.44-3.13-1.3-4.22-1.95-3.02-4.44-5.3-7.46-6.81-2.59-.86-4.22-1.3-4.87-1.3-2.17,0-4.44,1.52-6.81,4.54-.65,1.08-2.38,4.43-5.19,10.06-2.11,5.05-4.05,10.04-5.91,15-6.69,9.22-14.65,19.34-23.94,30.43-6.06,6.71-11.79,12.65-17.19,17.84l-9.08,7.46c-.44.22-.81.44-1.14.65-.32.22-.81.32-1.46.32l-.65-.32c-.65-.43-.76-1.41-.33-2.92.65-5.41,1.95-11.14,3.9-17.2,2.81-8,6.82-17.95,12.01-29.85l1.62-3.57c.43-1.3.54-2.27.33-2.92-.22-.65-.87-1.3-1.94-1.95-1.95-1.73-4.33-2.59-7.14-2.59-2.16,0-4.54.54-7.14,1.62-.22,0-.44.11-.65.32s-.32.54-.32.98c-.22,1.73-1.41,3.68-3.57,5.84l-5.84,6.16c-13.2,13.19-28.23,24.88-45.1,35.04-4.76,3.24-9.95,5.84-15.58,7.79-1.51.65-2.7.98-3.57.98-1.3,0-1.95-1.19-1.95-3.57v-1.62l.33-1.3c.65-5.4,2.16-11.25,4.54-17.52,8.22-19.68,21.09-36.44,38.61-50.29,3.46-2.81,7.02-4.97,10.71-6.49,1.73-1.08,3.46-1.73,5.19-1.95,1.08-.43,1.62-.1,1.62.98.21.65.32,1.73.32,3.24v1.62c0,4.76-1.19,9.2-3.57,13.3-.44.65-.65,1.62-.65,2.92s.76,2.38,2.27,3.24l2.59,1.62c1.95.87,4,.65,6.17-.65,5.84-3.68,9.3-9.41,10.38-17.19.21-5.84-1.95-10.92-6.49-15.25-4.98-4.11-9.95-6.6-14.93-7.46-2.59-.43-4.43-.65-5.51-.65h-1.95c-3.68.22-7.57,1.3-11.68,3.24-5.19,2.39-10.6,5.95-16.22,10.71-1.33,1.11-2.64,2.26-3.92,3.43-4.75,1.14-14.51,3.85-15.87,4.36-.86.35-1.72.71-2.57,1.08-6.26,2.72-12.31,5.9-18.2,9.35-3.31,1.94-6.59,3.95-9.79,6.06-2.91,1.91-5.99,3.61-8.83,5.68-.79.57-2.24,1.2-2.62-.2-.12-.45-.04-.94.05-1.4.41-2.13.85-4.26,1.19-6.41.7-4.41,1.06-9.18-1.06-13.11-2.79-5.17-8.88-7.49-14.17-9.18-2.27-.73-4.65-1.38-7.06-1.27-2.06.1-4.08,1.27-6.17.83-.43-.09-.86-.26-1.16-.59-.15-.17-.26-.37-.36-.57-1.99-3.98-6.01-6.99-9.84-9.16-3.54-2-7.5-3.19-11.57-3.19-2.16,0-4.33.33-6.49.98-3.68,1.08-6.06,1.84-7.14,2.27-15.68,7.43-25.98,19.44-31.04,35.92-3.3,2.79-6.89,5.84-10.81,9.18-13.84,11.46-22.39,18.38-25.63,20.76-14.5,11.47-27.04,20.28-37.64,26.44-10.6,6.17-21.74,9.25-33.42,9.25-8.23,0-13.3-2.81-15.25-8.44-.43-1.3-.86-3.46-1.3-6.49,0-4.76.65-9.41,1.94-13.95,2.59-9.94,7.57-19.79,14.92-29.52,1.08-1.3,1.84-1.95,2.27-1.95s1.3.32,2.59.98c2.38,1.51,5.08,2.59,8.11,3.24,1.3.22,3.25.33,5.84.33,4.11,0,7.78-.43,11.03-1.3,7.35-1.94,13.74-5.35,19.14-10.22,5.4-4.87,9.08-10.87,11.03-18.01.65-2.38.97-4.75.97-7.14,0-2.81-.44-5.19-1.3-7.14-1.3-3.24-3.52-5.68-6.65-7.3-3.14-1.62-6.65-2.43-10.54-2.43-1.52,0-3.36.22-5.52.65-4.33.65-8.76,1.84-13.3,3.57-18.82,8.43-33.53,20.33-44.12,35.69-1.66,2.27-3.14,4.54-4.53,6.81l-9.09,9.09-24.33,24.34c-6.06,5.84-12.28,11.79-18.66,17.84-6.38,6.06-12.49,11.36-18.33,15.9-6.92,5.41-11.58,8.76-13.95,10.06-3.68,1.95-6.82,3.36-9.41,4.22-1.3.44-2.27.49-2.92.16-.65-.32-1.19-1.13-1.62-2.43-1.08-2.38-1.73-4.76-1.94-7.14-.43-4.33-.65-7.46-.65-9.41s.22-5.08.65-9.41c.65-6.05,1.89-12.76,3.73-20.12,1.84-7.35,3.73-14.38,5.68-21.09.65-2.38,1.84-4.1,3.57-5.19,6.05-4.97,13.19-12.01,21.41-21.09,14.06-15.58,29.53-34.72,46.4-57.43,9.09-12.33,16.11-23.03,21.09-32.12.65-1.08,1.89-3.41,3.73-6.97,1.84-3.57,3.41-6.97,4.71-10.22.86-1.95,1.62-4.65,2.27-8.11.87-3.89-.32-7.67-3.57-11.35-1.08-1.3-3.57-3.13-7.46-5.51-2.82-1.51-5.74-2.27-8.76-2.27-2.17,0-4.22.32-6.17.97-1.94.44-4.11,1.52-6.49,3.25-3.68,2.16-7.9,5.41-12.65,9.74-7.14,6.71-14.27,14.6-21.42,23.68-22.06,28.55-39.47,60.89-52.23,97.01-1.45,4.15-2.76,8.13-4,12.04-9.73,12.75-20.88,25.5-33.63,38.25-20.12,19.69-42.29,38.83-66.51,57.43-21.42,16.22-39.59,28.66-54.51,37.31-13.84,8.43-26.82,14.49-38.93,18.16-10.38,2.81-18.6,4.22-24.66,4.22-12.76,0-21.31-4.76-25.63-14.28-1.3-2.16-2.27-4.65-2.92-7.46-1.3-4.76-1.94-9.63-1.94-14.6,0-5.84.87-12.01,2.59-18.5,3.68-13.41,9.84-26.28,18.5-38.61,9.94-14.71,22.71-28.66,38.28-41.86,33.3-28.76,70.41-52.34,111.28-70.73,4.76-2.16,8.43-3.57,11.03-4.22.86-.21,1.84-.54,2.92-.97,1.08-.43,1.84-.75,2.27-.97,1.95-.65,2.92-1.84,2.92-3.57v-.98c0-.86-.22-1.95-.65-3.25-1.95-6.92-5.31-11.24-10.06-12.98h-.32c-1.51-1.3-3.03-1.94-4.54-1.94s-3.14.65-4.87,1.94c-3.9,3.03-9.95,6.38-18.17,10.06-7.35,2.82-13.41,4.87-18.17,6.17-20.76,6.06-40.34,9.2-58.73,9.41h-8.43c-7.14-.86-12.87-2.16-17.19-3.9-3.46-1.51-5.19-4.65-5.19-9.41,0-1.73.21-4.1.65-7.14,1.08-4.75,2.7-9.19,4.87-13.3,4.11-8.22,8.97-15.46,14.6-21.74,13.41-16.22,30.06-30.5,49.96-42.83,16.43-10.17,32.77-17.19,48.99-21.09,8.22-2.16,16.01-3.25,23.36-3.25,3.02,0,5.3.11,6.82.33,5.62.65,10.71,2.06,15.25,4.22,3.45,1.51,5.19,3.03,5.19,4.54,0,.87-.87,2.71-2.59,5.51-.65.87-.97,1.84-.97,2.92v.97c1.08,4.33,3.25,7.68,6.49,10.06.86.65,1.73.98,2.6.98,1.08,0,2.05-.43,2.92-1.3,2.59-1.73,4-4.1,4.22-7.14.65-4.54-.22-8.97-2.6-13.3-4.54-8.65-10.6-14.93-18.16-18.82-9.52-4.76-20.34-7.14-32.45-7.14-11.03,0-22.82,2.17-35.36,6.49-27.9,9.74-53.21,25.1-75.92,46.07-11.47,10.6-20.01,20.66-25.63,30.17-3.68,5.63-6.71,11.9-9.08,18.82-1.3,5.19-1.95,9.41-1.95,12.66,0,8.43,2.92,16.44,8.76,24.01,6.7,8.65,15.35,14.71,25.96,18.16,5.84,1.74,13.63,2.82,23.36,3.25.21,0,.75-.05,1.62-.16.86-.1,1.41.28,1.62,1.14.21.65-.05,1.13-.81,1.46-.76.32-1.25.6-1.46.81l-3.89,2.92c-19.26,13.42-35.37,26.28-48.35,38.61-13.41,12.76-24.55,26.28-33.42,40.56-9.94,16.66-15.9,32.23-17.84,46.72-.43,4.75-.65,8.22-.65,10.38,0,8.44,1.51,16.33,4.54,23.69,4.33,10.59,11.63,19.3,21.9,26.11,10.27,6.82,21.03,10.43,32.28,10.87,8.43.65,17.3-.44,26.6-3.24,10.81-2.82,23.36-8.33,37.64-16.55,8.87-5.19,21.74-13.63,38.61-25.31,33.95-24.44,64.24-50.29,90.84-77.54,2.55-2.55,5-5.12,7.4-7.71-.6,5.33-.91,10.71-.91,16.14,0,6.28.54,11.58,1.62,15.9,1.73,6.71,5.3,12.06,10.71,16.06,5.41,4,11.68,6,18.82,6,4.76,0,10.17-1.52,16.22-4.54,5.19-3.03,10.38-6.82,15.57-11.35,11.25-9.74,21.2-18.82,29.85-27.26,2.41-2.4,8.25-8.35,17.36-17.68-.08,1.24-.17,2.49-.17,3.73,0,9.73,3.46,18.28,10.38,25.63,8.87,8.87,19.14,13.3,30.83,13.3,8.65,0,17.41-2.27,26.28-6.82,8.87-4.54,18.6-10.81,29.2-18.82,16.05-12.07,31.05-24.26,45.05-36.55.57,2.39,1.52,4.54,2.97,6.38,5.19,7.79,12.11,11.68,20.76,11.68,3.46,0,6.81-.65,10.06-1.95,5.19-1.95,9.73-4.65,13.63-8.11,4.5-4,9.25-7.67,13.62-11.83,2.37-2.26,4.7-4.57,6.97-6.93,2.15-2.23,4.46-4.31,6.5-6.66.14-.16.29-.32.49-.35.25-.03.48.17.57.41.54,1.45-.28,3.81-.58,5.24-.87,4.11-2.59,10.28-5.19,18.49-.65,2.38-1.19,4.27-1.62,5.68-.44,1.41-1.35,2.76-2.76,4.05-1.41,1.3-2.54,2.27-3.41,2.92-16.01,13.85-33.53,30.61-52.56,50.29-15.79,16.87-29.09,33.63-39.91,50.29-9.3,14.27-15.9,28-19.79,41.2-1.94,6.05-3.13,13.08-3.57,21.09,0,4.11.54,8.54,1.62,13.3,2.38,6.27,6.28,10.71,11.68,13.3,5.4,2.38,10.6,3.57,15.57,3.57,4.11,0,8-.76,11.68-2.27,4.33-1.3,9.41-4.11,15.25-8.43,6.71-5.41,12.33-10.93,16.87-16.55,8.22-9.73,15.46-20.76,21.74-33.09,9.3-16.87,18.16-37.42,26.6-61.64,8.65-24.22,15.9-47.91,21.74-71.05,1.3-3.67,3.46-6.92,6.49-9.73,14.69-11.48,28.65-20.56,41.89-27.3-3.26,4.4-6.31,9.06-9.12,13.99-3.03,4.76-5.62,10.27-7.79,16.55-2.38,6.71-3.57,13.09-3.57,19.14,0,5.63,1.3,10.06,3.89,13.3,2.16,2.81,5.36,5.35,9.57,7.62,4.22,2.27,8.49,3.41,12.81,3.41,2.17,0,4.22-.32,6.17-.97,4.32-1.08,10.38-3.78,18.17-8.11,7.35-4.76,15.46-10.71,24.33-17.84.21-.21.7-.76,1.46-1.62.75-.86,1.78-1.3,3.08-1.3.21.87.21,1.78,0,2.76-.22.97-.44,1.78-.65,2.43-.65,2.6-.97,5.19-.97,7.79l.32,4.54c.65,2.38,1.73,4.54,3.25,6.49,1.51,1.74,3.62,3.2,6.33,4.38,2.7,1.19,5.57,1.79,8.6,1.79s5.62-.54,7.79-1.62c2.16-.86,4.65-2.48,7.46-4.87,2.38-1.73,6.7-5.73,12.98-12.01,4.08-4.41,8.13-9.11,12.17-13.96-.87,3.13-1.62,6.43-2.11,10.07-.65,2.38,0,4.43,1.94,6.16,3.03,3.03,6.6,4.54,10.71,4.54,2.17,0,3.68-.76,4.54-2.27l3.57-5.19c12.54-20.33,25.95-38.71,40.23-55.15,9.52-11.25,18.6-20.55,27.26-27.9l5.51-4.22c1.3-1.3,2.16-.86,2.6,1.3v4.71c0,2.49-.33,4.82-.97,6.97l-2.27,8.43c-2.16,9.09-4.11,15.79-5.84,20.12-6.28,16.22-10.82,30.28-13.63,42.17-1.08,4.33-1.62,8.44-1.62,12.33,0,5.84,2.6,10.06,7.79,12.66,2.81,1.51,5.73,2.27,8.76,2.27,2.81,0,5.52-.65,8.11-1.95,3.25-1.51,7.68-4.43,13.3-8.76,3.89-3.24,9.51-8.32,16.87-15.25l15.58-15.9c2.45-2.53,4.8-4.92,7.1-7.24-.53,1.77-1.08,3.54-1.59,5.3-3.46,13.19-5.73,24.44-6.81,33.74l-.33,6.16c0,2.38.33,4.76.97,7.14,1.08,4.98,3.57,8.33,7.46,10.06,3.89,1.95,7.68,2.92,11.35,2.92,3.03,0,6.17-.65,9.41-1.95,3.03-1.51,6.17-3.36,9.41-5.51,5.4-3.9,13.09-10.17,23.03-18.82,4.76-4.11,12.11-10.81,22.06-20.12,7.08-6.62,12.94-12.07,17.61-16.39-.46,2.97-.74,5.95-.74,8.93,0,9.73,3.46,18.28,10.38,25.63,8.87,8.87,19.14,13.3,30.82,13.3,8.65,0,17.41-2.27,26.28-6.82,8.87-4.54,18.6-10.81,29.2-18.82,22.71-17.08,43.36-34.39,61.97-51.91,1.3-1.08,1.95-2.27,1.95-3.57s-.6-2.27-1.79-2.92Zm-746.69,2.92c.65-1.73,2.92-4,6.81-6.82,9.73-7.35,18.92-12.76,27.57-16.22l1.3-.33c.86,0,1.3.44,1.3,1.3,0,1.52-.11,2.6-.33,3.25-.44,1.73-1.41,3.68-2.92,5.84-6.71,9.08-17.19,14.71-31.47,16.87-.22,0-.44.05-.65.16-.22.11-.33.06-.33-.16-.87,0-1.3-.11-1.3-.33-.65-.65-.65-1.84,0-3.57Zm-106.74-30.82l1.95-3.89c8-15.79,16-29.63,24.01-41.53,10.17-15.14,19.03-26.71,26.61-34.71,3.02-3.46,5.51-5.84,7.46-7.14.65-.65,1.08-.54,1.3.33-.22.22-.33.65-.33,1.3l-4.54,8.76c-3.24,6.28-8.11,14.06-14.6,23.36-10.38,14.71-23.57,32.45-39.58,53.21l-.97.98c-.44.87-.87,1.08-1.3.65-.22,0-.32-.16-.32-.49s.1-.59.32-.81Zm262.94,24.45c-.48,1.14-1.64,2.19-2.43,3.13-8,8.44-15.9,15.47-23.68,21.09-2.39,1.72-5.42,3.04-8.01,4.46-2.66,1.46-5.39,3.18-8.41,3.79-1.19.24-2.51.27-3.56-.35-4.19-2.48-.56-10.78.62-14.07,1.58-4.41,3.8-8.6,6.4-12.49,6.92-10.36,17.77-18.78,29.98-21.61,1.82-.42,3.26-.01,3.68,2.02.41,1.95,0,3.87.56,5.86.52,1.86,1.41,3.62,2.59,5.14.32.41.66.81,1.11,1.07.38.23.84.37,1.09.73.24.35.22.83.06,1.22Zm-2.75,70.62c-8.87,30.5-18.39,57.1-28.55,79.81-6.92,16.43-14.82,31.03-23.68,43.8-4.11,6.27-9.3,12.54-15.57,18.82-4.76,4.76-9.19,8.22-13.3,10.38-1.94,1.3-4,2.27-6.17,2.92-1.51.43-2.59.54-3.24.33-.65-.22-1.3-.87-1.95-1.95-1.95-3.03-2.92-6.71-2.92-11.03-.21-.87-.33-2.38-.33-4.54,0-6.92,1.94-16.22,5.84-27.9,5.41-14.27,13.95-29.09,25.63-44.45,7.78-11.9,19.14-25.42,34.07-40.56,11.46-11.89,20-20.55,25.63-25.95.43-.21,1.73-1.19,3.9-2.92.43-.43.75-.43.97,0,.21.44.33.87.33,1.3l-.65,1.95Zm481.14-64.24c.65-1.73,2.92-4,6.82-6.82,9.73-7.35,18.92-12.76,27.57-16.22l1.3-.33c.86,0,1.3.44,1.3,1.3,0,1.52-.11,2.6-.33,3.25-.44,1.73-1.41,3.68-2.92,5.84-6.71,9.08-17.19,14.71-31.47,16.87-.22,0-.44.05-.65.16-.22.11-.33.06-.33-.16-.87,0-1.3-.11-1.3-.33-.65-.65-.65-1.84,0-3.57Zm-480.59-99.3c-10.83,25.58-43.73,34.55-68.3,23.98-37.09-14.68-44.05-68.19-13.47-93.39,26.81-23.6,65.99-23.14,98.82-16.73,37.23,7.54,71.89,23.63,104.91,41.51,57.22,30.66,133.36,78.46,195.65,34.99.67-.82,2.07.37,1.27,1.16-17.15,17.86-43.08,24.82-67.26,24.9-74.89-1.16-134.81-52.95-203.29-76.04-33.37-11.27-69.35-21.9-103.33-8.51-38.79,15.28-44.03,74.91-.89,86.99,20.16,6.18,43.49-1.32,54.45-19.78.62-.94,2.01,0,1.45.93Zm151.7-4.71c-5.67,13.39-22.89,18.08-35.74,12.55-19.41-7.68-23.05-35.68-7.05-48.87,14.03-12.35,34.54-12.11,51.72-8.75,19.48,3.95,37.62,12.36,54.9,21.72,29.95,16.04,69.79,41.06,102.39,18.31.35-.43,1.08.2.66.61-8.98,9.35-22.55,12.99-35.2,13.03-39.19-.61-70.55-27.71-106.39-39.79-17.46-5.9-36.29-11.46-54.08-4.46-20.3,8-23.04,39.21-.46,45.52,10.55,3.24,22.76-.69,28.5-10.35.32-.5,1.05,0,.76.48Z"/></svg>